<?xml version="1.0" encoding="UTF-8"?>
<svg id="Layer_4" data-name="Layer 4" xmlns="http://www.w3.org/2000/svg" viewBox="0 0 670 531.15">
  <defs>
    <style>
      .cls-1 {
        fill: #ff2e58;
      }

      .cls-1, .cls-2, .cls-3, .cls-4, .cls-5, .cls-6, .cls-7 {
        stroke-width: 0px;
      }

      .cls-2 {
        fill: #006fdb;
      }

      .cls-3 {
        fill: #1f0044;
      }

      .cls-4 {
        fill: #ffb133;
      }

      .cls-5 {
        fill: #fff;
      }

      .cls-6 {
        fill: #03beab;
      }

      .cls-7 {
        fill: #08c1cf;
      }
    </style>
  </defs>
  <g>
    <path class="cls-3" d="M634,182.57v196c0,9.84-1.35,19.39-3.91,28.5-10.67,38.18-42.29,68.66-82.98,80.57-.86.25-1.73.5-2.6.73-9.11,2.48-18.66,4.03-28.51,4.52-2.31.12-4.65.18-7,.18h-23.61c.56-.58,1.12-1.17,1.66-1.76.84-.91,1.67-1.84,2.48-2.78.24-.28.49-.57.73-.86.25-.29.49-.59.74-.88.81-.98,1.6-1.96,2.37-2.96.25-.32.5-.64.74-.96.48-.64.96-1.27,1.42-1.92.03-.02.04-.05.06-.07.14-.19.28-.38.41-.58h0c.34-.49.68-.96,1.01-1.44.95-1.36,1.85-2.74,2.72-4.14.02-.04.05-.07.07-.11,4.64-.15,9.15-.5,14.49-1.17,4.79-.6,9.25-1.17,13.64-1.91.46-.07.92-.16,1.38-.24,1.02-.18,2.03-.37,3.04-.57.31-.07.62-.13.93-.2,3.67-.77,7.36-1.73,11.23-3,.85-.28,1.72-.58,2.59-.89,2.66-.93,5.28-1.97,7.84-3.09,7.6-3.27,19.1-9.18,30.39-20.12.2-.19.41-.38.61-.57,12.01-11.64,20.62-25.87,24.89-41.16.2-.72.38-1.44.56-2.16.43-1.67.79-3.35,1.11-5.05.99-5.22,1.5-10.54,1.5-15.91v-196c0-2.6-.43-5.13-1.23-7.52-1.15-3.39-3.06-6.5-5.66-9.11-.08-.07-.15-.13-.22-.2-.25-.24-.5-.48-.75-.71-.14-.12-.29-.24-.43-.37-.2-.17-.4-.33-.61-.49-.13-.11-.26-.22-.4-.32-.22-.17-.44-.33-.67-.49-.1-.07-.21-.15-.31-.22-.25-.17-.51-.34-.77-.5-.07-.04-.14-.09-.21-.13-.25-.16-.51-.3-.76-.45-.07-.03-.13-.07-.2-.11-.22-.12-.45-.24-.67-.35-.09-.05-.17-.09-.26-.13-.2-.1-.4-.19-.6-.28-.1-.05-.2-.09-.3-.14-.56-.25-1.14-.48-1.73-.68-.09-.03-.18-.06-.27-.09-.3-.1-.61-.2-.92-.29-.17-.05-.33-.09-.5-.13-.2-.06-.41-.11-.62-.16-.22-.05-.44-.1-.65-.14-.13-.03-.27-.06-.41-.08-.27-.05-.54-.1-.8-.14-.07-.01-.15-.02-.22-.03-.33-.05-.64-.09-.94-.12-.06,0-.11-.01-.16-.01-.34-.04-.66-.06-.97-.07-.06-.01-.12-.01-.19-.01-.32-.02-.63-.03-.91-.03h-.17c-.53,0-1.07.02-1.6.05-5.83.38-11.3,3.39-15.32,7.82-4.01,4.44-6.57,10.28-6.57,16.34v175.79c0,6.73-.77,13.24-2.2,19.38-1.07,4.6-2.52,9.01-4.29,13.15-3.35,7.81-7.88,14.7-13.31,20.28-.01,0-.02.01-.02.02-.41.41-.82.81-1.23,1.21-.31.3-.62.59-.94.88-.17.16-.33.31-.5.47h-.01c-2.47,2.21-5.3,4.35-8.53,6.27-7.01,4.17-14.12,6.26-20.44,7.36.04-.41.07-.82.1-1.23.01-.19.03-.38.05-.57s.03-.38.04-.57c.04-.52.07-1.04.1-1.56.01-.24.03-.49.04-.74.02-.27.03-.55.04-.82.02-.38.03-.77.04-1.15.02-.63.03-1.27.04-1.91.01-.11.01-.21.01-.32v-.74c0-.14.01-.27.01-.41v-3h-.05c0-.15,0-.31-.01-.46-.02-.69-.05-1.37-.08-2.05-.01-.21-.02-.41-.04-.62-.03-.72-.08-1.44-.14-2.15-.03-.36-.05-.72-.09-1.08-.01-.1-.01-.19-.02-.29-.03-.36-.07-.73-.11-1.1-.01-.08-.01-.16-.02-.25,0-.04-.01-.08-.01-.12.19-.02.38-.04.57-.07,12.59-1.55,23.22-12.8,28.1-28.43,1.87-5.93,2.9-12.48,2.9-19.38v-175.79c0-22.4,18.24-42.67,40.6-44.12.44-.03.87-.02,1.31-.04.53-.02,1.06-.05,1.58-.05.1,0,.2.01.3.01.56,0,1.11.01,1.66.04.28.01.57.03.85.05.3.02.6.04.91.07.46.04.93.08,1.39.14.29.03.58.07.87.11.43.06.86.12,1.29.2.34.05.68.11,1.02.18.25.05.5.09.74.14.49.11.97.22,1.45.34.13.03.26.06.39.09.14.04.28.08.42.12.46.12.92.25,1.37.39.24.07.48.15.72.23.38.12.76.25,1.14.38.23.08.47.17.7.25.45.17.9.35,1.35.54.25.1.51.21.76.32.42.18.84.37,1.25.56.25.12.5.25.75.37.31.15.62.31.93.48.25.13.51.27.76.41.35.19.69.38,1.02.58.17.1.35.2.52.3.6.36,1.19.74,1.77,1.13.48.33.96.67,1.43,1.02.25.18.5.38.75.57.2.16.41.32.61.48.34.27.67.54,1,.82.2.17.4.34.6.52.7.61,1.39,1.24,2.05,1.9,7.87,7.88,12.74,18.75,12.74,30.76Z"/>
    <path class="cls-3" d="M634,182.57v196c0,9.84-1.35,19.39-3.91,28.5-10.67,38.18-42.29,68.66-82.98,80.57-.86.25-1.73.5-2.6.73-9.11,2.48-18.66,4.03-28.51,4.52-2.31.12-4.65.18-7,.18h-23.61c.56-.58,1.12-1.17,1.66-1.76.84-.91,1.67-1.84,2.48-2.78.24-.28.49-.57.73-.86.25-.29.49-.59.74-.88.81-.98,1.6-1.96,2.37-2.96.25-.32.5-.64.74-.96.48-.64.96-1.27,1.42-1.92.03-.02.04-.05.06-.07.14-.19.28-.38.41-.58h0c.34-.49.68-.96,1.01-1.44.95-1.36,1.85-2.74,2.72-4.14.02-.04.05-.07.07-.11,4.64-.15,9.15-.5,14.49-1.17,4.79-.6,9.25-1.17,13.64-1.91.46-.07.92-.16,1.38-.24,1.02-.18,2.03-.37,3.04-.57.31-.07.62-.13.93-.2,3.67-.77,7.36-1.73,11.23-3,.85-.28,1.72-.58,2.59-.89,2.66-.93,5.28-1.97,7.84-3.09,7.6-3.27,19.1-9.18,30.39-20.12.2-.19.41-.38.61-.57,12.01-11.64,20.62-25.87,24.89-41.16.2-.72.38-1.44.56-2.16.43-1.67.79-3.35,1.11-5.05.99-5.22,1.5-10.54,1.5-15.91v-196c0-2.6-.43-5.13-1.23-7.52-1.15-3.39-3.06-6.5-5.66-9.11-.08-.07-.15-.13-.22-.2-.25-.24-.5-.48-.75-.71-.14-.12-.29-.24-.43-.37-.2-.17-.4-.33-.61-.49-.13-.11-.26-.22-.4-.32-.22-.17-.44-.33-.67-.49-.1-.07-.21-.15-.31-.22-.25-.17-.51-.34-.77-.5-.07-.04-.14-.09-.21-.13-.25-.16-.51-.3-.76-.45-.07-.03-.13-.07-.2-.11-.22-.12-.45-.24-.67-.35-.09-.05-.17-.09-.26-.13-.2-.1-.4-.19-.6-.28-.1-.05-.2-.09-.3-.14-.56-.25-1.14-.48-1.73-.68-.09-.03-.18-.06-.27-.09-.3-.1-.61-.2-.92-.29-.17-.05-.33-.09-.5-.13-.2-.06-.41-.11-.62-.16-.22-.05-.44-.1-.65-.14-.13-.03-.27-.06-.41-.08-.27-.05-.54-.1-.8-.14-.07-.01-.15-.02-.22-.03-.33-.05-.64-.09-.94-.12-.06,0-.11-.01-.16-.01-.34-.04-.66-.06-.97-.07-.06-.01-.12-.01-.19-.01-.32-.02-.63-.03-.91-.03h-.17c-.53,0-1.07.02-1.6.05-5.83.38-11.3,3.39-15.32,7.82-4.01,4.44-6.57,10.28-6.57,16.34v175.79c0,6.73-.77,13.24-2.2,19.38-1.07,4.6-2.52,9.01-4.29,13.15-3.35,7.81-7.88,14.7-13.31,20.28-.01,0-.02.01-.02.02-.41.41-.82.81-1.23,1.21-.31.3-.62.59-.94.88-.17.16-.33.31-.5.47h-.01c-2.47,2.21-5.3,4.35-8.53,6.27-7.01,4.17-14.12,6.26-20.44,7.36.04-.41.07-.82.1-1.23.01-.19.03-.38.05-.57s.03-.38.04-.57c.04-.52.07-1.04.1-1.56.01-.24.03-.49.04-.74.02-.27.03-.55.04-.82.02-.38.03-.77.04-1.15.02-.63.03-1.27.04-1.91.01-.11.01-.21.01-.32v-.74c0-.14.01-.27.01-.41v-3h-.05c0-.15,0-.31-.01-.46-.02-.69-.05-1.37-.08-2.05-.01-.21-.02-.41-.04-.62-.03-.72-.08-1.44-.14-2.15-.03-.36-.05-.72-.09-1.08-.01-.1-.01-.19-.02-.29-.03-.36-.07-.73-.11-1.1-.01-.08-.01-.16-.02-.25,0-.04-.01-.08-.01-.12.19-.02.38-.04.57-.07,12.59-1.55,23.22-12.8,28.1-28.43,1.87-5.93,2.9-12.48,2.9-19.38v-175.79c0-22.4,18.24-42.67,40.6-44.12.44-.03.87-.02,1.31-.04.53-.02,1.06-.05,1.58-.05.1,0,.2.01.3.01.56,0,1.11.01,1.66.04.28.01.57.03.85.05.3.02.6.04.91.07.46.04.93.08,1.39.14.29.03.58.07.87.11.43.06.86.12,1.29.2.34.05.68.11,1.02.18.25.05.5.09.74.14.49.11.97.22,1.45.34.13.03.26.06.39.09.14.04.28.08.42.12.46.12.92.25,1.37.39.24.07.48.15.72.23.38.12.76.25,1.14.38.23.08.47.17.7.25.45.17.9.35,1.35.54.25.1.51.21.76.32.42.18.84.37,1.25.56.25.12.5.25.75.37.31.15.62.31.93.48.25.13.51.27.76.41.35.19.69.38,1.02.58.17.1.35.2.52.3.6.36,1.19.74,1.77,1.13.48.33.96.67,1.43,1.02.25.18.5.38.75.57.2.16.41.32.61.48.34.27.67.54,1,.82.2.17.4.34.6.52.7.61,1.39,1.24,2.05,1.9,7.87,7.88,12.74,18.75,12.74,30.76Z"/>
  </g>
  <path class="cls-3" d="M116,248.83v161.24h20v-145.29c-7.21-4.62-13.91-9.98-20-15.95ZM491.42,306.07c-2.26-5.1-4.82-10.04-7.67-14.79-4.48-7.49-9.67-14.52-15.48-20.99-7.55-8.42-16.14-15.89-25.56-22.22-18.78-12.61-40.88-20.66-64.71-22.56-3.63-.29-7.3-.44-11-.44-2.39,0-4.77.06-7.14.19-.37.61-.74,1.21-1.13,1.81-.24.37-.48.74-.73,1.11-.04.06-.08.12-.12.18-.38.58-.77,1.16-1.16,1.73-.73,1.06-1.47,2.11-2.23,3.14-.35.48-.7.96-1.06,1.44-.39.52-.79,1.04-1.19,1.55-.34.45-.7.91-1.07,1.35-.4.51-.82,1.03-1.24,1.53-.51.62-1.02,1.23-1.54,1.83-.47.55-.96,1.11-1.45,1.65-.26.29-.52.58-.77.87-.17.18-.33.36-.5.53-.1.12-.2.23-.31.35h-.01c-.27.31-.53.59-.81.88,13.13-1.38,24.1-.71,31.87.24,17.03,1.36,33.6,6.51,48.37,15.02.75.43,1.5.87,2.25,1.32.8.47,1.59.97,2.38,1.47.03.02.07.05.11.07.68.44,1.36.89,2.04,1.34,8.03,5.4,15.38,11.78,21.83,18.98.17.19.54.61,1.07,1.22.31.35.6.7.9,1.06.17.18.33.37.48.55.92,1.08,1.81,2.18,2.68,3.3.44.56.87,1.12,1.29,1.69.39.52.78,1.04,1.16,1.57.06.09.13.17.18.26.34.46.67.92.99,1.38.09.13.18.26.27.39.37.53.73,1.07,1.08,1.6.17.25.34.51.49.76.23.33.45.67.67,1.02.04.05.07.11.11.16.26.4.52.81.77,1.22.04.06.07.12.11.18.32.51.64,1.03.96,1.56.45.76.9,1.52,1.33,2.28.29.5.57,1.01.85,1.52-.01-.01-.02-.01-.03-.02,6.12,11.29,9.67,22.95,11.74,32.93,8.98,8.23,16.56,17.86,22.39,28.52.08-1.9.12-3.81.12-5.73,0-19.58-4.13-38.19-11.58-55Z"/>
  <path class="cls-3" d="M374.38,8.76c-2.75-3.93-6.64-6.6-10.92-7.88-.77-.23-1.56-.42-2.36-.56-1.2-.21-2.42-.32-3.65-.32-.98,0-1.97.07-2.95.21-.49.07-.98.16-1.46.26-2.43.52-4.82,1.49-7.03,2.91l-1.13.79-52.31,36.63c.1.03.2.07.3.1.48.16.96.32,1.44.49h.01c.46.16.91.32,1.36.48.3.11.6.21.9.33.41.14.81.3,1.21.45.04.02.08.03.12.04.43.17.86.33,1.29.5.21.09.41.17.61.25.68.26,1.34.54,2.01.82.47.19.93.39,1.38.59.72.31,1.43.62,2.14.95.11.05.22.1.33.15.62.28,1.24.57,1.86.87.53.25,1.06.51,1.59.78.18.09.36.18.54.27.27.13.53.26.79.4.32.16.64.33.96.5.04.03.08.05.12.07h0c.05,0,.1.04.15.08.54.28,1.08.57,1.62.87.24.13.48.26.72.4h0l17.94-12.56,21.34-14.95,3.02-2.12.65-.45c.12-.06.27-.11.46-.11.26,0,.44.08.54.22t.01.02v70.72c.23.34.44.68.66,1.02.22.33.44.67.65,1.01.2.31.39.62.58.93.29.47.58.94.86,1.42.18.29.35.57.51.86.17.28.34.57.51.86.26.46.53.92.78,1.38.12.2.23.4.34.6.39.7.78,1.42,1.16,2.14.35.66.7,1.33,1.04,2.01.35.69.7,1.39,1.04,2.1.11.24.23.48.34.72.33.69.65,1.38.96,2.08.24.51.46,1.02.69,1.54.07.16.14.32.21.48.23.53.46,1.07.68,1.61,0,0,.01.02.01.03.07.17.14.33.21.5.37.91.73,1.83,1.08,2.75.01.02.01.03.02.05.21.55.42,1.11.62,1.67.05.15.11.29.16.44.26.72.52,1.44.76,2.17.24.7.48,1.4.7,2.11.11.33.21.67.32,1.01.17.53.33,1.05.48,1.58.12.4.24.81.35,1.21.01.01.01.03.01.04.1.34.2.67.29,1.01.09.34.18.68.27,1.02.12.42.22.84.33,1.27.05.19.1.38.15.58.05.19.1.38.15.58.01.04.02.07.02.11.42,1.69.79,3.38,1.13,5.1.13.66.26,1.32.38,1.98.04.21.08.43.12.64.63,3.55,1.11,7.15,1.43,10.8V18.75c-.29-3.48-1.48-6.93-3.62-9.99Z"/>
  <path class="cls-3" d="M112.12,4.17l-1.13-.79c-2.25-1.45-4.67-2.42-7.15-2.93-.45-.1-.89-.18-1.34-.24-.98-.14-1.96-.21-2.94-.21-1.23,0-2.45.11-3.65.32-.8.14-1.6.33-2.37.56-4.29,1.29-8.17,3.95-10.92,7.88-2.14,3.06-3.33,6.51-3.62,9.99v129.62c.32-3.65.8-7.25,1.43-10.8.47-2.64,1.02-5.25,1.65-7.83.17-.69.35-1.38.53-2.07.21-.82.43-1.63.67-2.43.23-.81.46-1.61.71-2.41s.5-1.6.76-2.39c.25-.77.51-1.53.78-2.29,0-.03.02-.05.03-.08,1.45-4.12,3.11-8.15,4.97-12.06.19-.41.39-.82.59-1.23,1.05-2.15,2.16-4.27,3.33-6.34.25-.46.52-.92.78-1.38.34-.58.67-1.15,1.02-1.72.3-.51.61-1.01.92-1.51.6-.97,1.21-1.92,1.83-2.87V20.24s0-.01.01-.01c.1-.15.29-.23.55-.23.19,0,.34.05.46.11l.63.44,24.38,17.08,17.94,12.56c4.19-2.33,8.52-4.42,12.98-6.25.47-.2.94-.39,1.42-.58.14-.06.29-.11.43-.17.43-.17.86-.33,1.29-.5.44-.16.88-.33,1.33-.49.6-.23,1.2-.44,1.81-.65.73-.26,1.46-.51,2.2-.75L112.12,4.17Z"/>
  <path class="cls-3" d="M515.99,416.68c0-.46-.01-.92-.03-1.37,0-.08,0-.16-.01-.24,0-.15,0-.31-.01-.46-.02-.69-.05-1.37-.08-2.05-.01-.21-.02-.41-.04-.62-.03-.72-.08-1.44-.14-2.15-.03-.36-.05-.72-.09-1.08-.01-.1-.01-.19-.02-.29-.03-.36-.07-.73-.11-1.1-.01-.08-.01-.16-.02-.25,0-.04-.01-.08-.01-.12-.09-.85-.19-1.7-.3-2.55-.04-.33-.09-.65-.13-.98-.1-.68-.19-1.35-.3-2.02-.12-.79-.26-1.58-.4-2.36-.16-.88-.33-1.76-.51-2.63-.13-.65-.27-1.3-.42-1.94-.58-2.57-1.26-5.11-2.03-7.62-.08-.25-.15-.49-.23-.74-.39-1.26-.81-2.51-1.26-3.76-.15-.41-.29-.82-.45-1.24-.33-.89-.67-1.78-1.02-2.66-.38-.95-.77-1.89-1.18-2.82-.17-.41-.35-.81-.53-1.21-.64-1.42-1.3-2.81-2-4.2-.15-.32-.31-.63-.48-.94-.42-.83-.86-1.66-1.31-2.48-5.83-10.66-13.41-20.29-22.39-28.52-7.68-7.03-16.38-13.05-25.86-17.81-6.67-3.36-13.73-6.1-21.1-8.14-.87-.24-1.74-.47-2.62-.69-6.66-1.68-13.56-2.79-20.65-3.28-2.73-.19-5.48-.29-8.26-.29-39.58,0-74.45,19.46-94.89,49.02-6.89,9.96-12.15,21.08-15.38,32.98-1.75,6.46-2.92,13.14-3.43,20-.2,2.64-.3,5.31-.3,8v76h196.41l.03-.03c.32-.32.64-.64.95-.97.56-.58,1.12-1.17,1.66-1.76.84-.91,1.67-1.84,2.48-2.78.24-.28.49-.57.73-.86.25-.29.49-.59.74-.88.81-.98,1.6-1.96,2.37-2.96.25-.32.5-.64.74-.96.48-.64.96-1.27,1.42-1.92.03-.02.04-.05.06-.07.14-.19.28-.38.41-.58h0c.34-.49.68-.96,1.01-1.44.95-1.36,1.85-2.74,2.72-4.14.02-.04.05-.07.07-.11,7.62-12.23,12.84-26.01,15.03-40.74.29-1.91.52-3.84.7-5.78.04-.41.07-.82.1-1.23.01-.19.03-.38.05-.57s.04-.38.05-.57c.03-.49.06-.98.09-1.47v-.09c.01-.24.03-.49.04-.74.02-.27.03-.55.04-.82.02-.38.03-.77.04-1.15.02-.63.03-1.27.04-1.91.01-.11.01-.21.01-.32,0-.25.01-.49.01-.74v-.41c0-.47,0-.93-.01-1.39ZM496,418.07c0,3.82-.25,7.66-.75,11.44-.06.47-.13.95-.2,1.42-2.36,15.82-9.06,30.64-19.46,43.14h-167.59v-56c0-2.7.12-5.36.37-8,.64-6.92,2.11-13.62,4.3-20,12.32-35.96,47.71-62,89.33-62,2.26,0,4.57.08,6.89.24,6.55.45,13.04,1.56,19.3,3.3,24.46,6.77,45.29,23.1,57.16,44.81.36.66.7,1.3,1,1.89l.15.3.12.23.19.38c.56,1.1,1.09,2.22,1.62,3.41.1.22.2.44.3.66l.16.38c.59,1.35,1.18,2.82,1.74,4.34l.08.22c.05.13.09.25.14.37.06.19.13.37.2.56.35.97.67,1.93.96,2.87l.02.08.03.09.04.14c.05.15.1.3.15.46.62,2.03,1.16,4.07,1.61,6.07l.02.08.02.09c.1.42.19.86.28,1.29v.07s.03.06.03.06c.15.72.28,1.44.41,2.11.11.61.22,1.22.31,1.84l.02.11.02.12c.05.34.1.67.15,1.01l.06.45c.03.19.05.37.08.55l.03.24v.08c.06.39.11.78.15,1.18v.03l.09.76c0,.18.03.38.06.61,0,.13.03.27.04.4.02.25.04.5.06.75v.08s.02.13.02.13c0,.18.03.36.04.57.05.5.07.93.09,1.29l.02.54.03.27c.02.53.05,1.07.06,1.61v1.13l.04.32v.48s.01.95.01.95Z"/>
  <path class="cls-1" d="M496,417.12v.95c0,3.82-.25,7.66-.75,11.44-.06.47-.13.95-.2,1.42-2.36,15.82-9.06,30.64-19.46,43.14h-167.59v-56c0-2.7.12-5.36.37-8,.64-6.92,2.11-13.62,4.3-20,12.32-35.96,47.71-62,89.33-62,2.26,0,4.57.08,6.89.24,6.55.45,13.04,1.56,19.3,3.3,24.46,6.77,45.29,23.1,57.16,44.81.36.66.7,1.3,1,1.89l.15.3.12.23.19.38c.56,1.1,1.09,2.22,1.62,3.41.1.22.2.44.3.66l.16.38c.59,1.35,1.18,2.82,1.74,4.34l.08.22c.05.13.09.25.14.37.06.19.13.37.2.56.35.97.67,1.93.96,2.87l.02.08.03.09.04.14c.05.15.1.3.15.46.62,2.03,1.16,4.07,1.61,6.07l.02.08.02.09c.1.42.19.86.28,1.29v.07s.03.06.03.06c.15.72.28,1.44.41,2.11.11.61.22,1.22.31,1.84l.02.11.02.12c.05.34.1.67.15,1.01l.06.45c.03.19.05.37.08.55l.03.24v.08c.06.39.11.78.15,1.18v.03l.09.76c0,.18.03.38.06.61,0,.13.03.27.04.4.02.25.04.5.06.75v.08s.02.13.02.13c0,.18.03.36.04.57.05.5.07.93.09,1.29l.02.54.03.27c.02.53.05,1.07.06,1.61v1.13l.04.32v.48Z"/>
  <path class="cls-3" d="M378.46,156.44c-.06-2.71-.22-5.4-.46-8.07-.32-3.65-.8-7.25-1.43-10.8-.04-.21-.08-.43-.12-.64-.12-.66-.25-1.32-.38-1.98-.34-1.71-.72-3.41-1.13-5.1-.06-.23-.12-.46-.17-.69-.05-.2-.1-.39-.15-.58-.11-.43-.21-.85-.33-1.27-.09-.34-.18-.68-.27-1.02-.09-.34-.19-.67-.29-1.01,0-.01,0-.03-.01-.04-.11-.4-.23-.81-.35-1.21-.15-.53-.31-1.05-.48-1.58-.11-.34-.21-.68-.32-1.01-.22-.71-.46-1.41-.7-2.11-.24-.73-.5-1.45-.76-2.17-.05-.15-.11-.29-.16-.44-.2-.56-.41-1.12-.62-1.67-.01-.02-.01-.03-.02-.05-.18-.48-.37-.96-.55-1.44-.17-.44-.35-.88-.53-1.31-.07-.17-.14-.33-.21-.5,0-.01-.01-.02-.01-.03-.22-.54-.45-1.08-.68-1.61-.07-.16-.14-.32-.21-.48-.23-.52-.45-1.03-.69-1.54-.1-.23-.2-.45-.3-.67-.21-.47-.43-.94-.66-1.41-.11-.24-.23-.48-.34-.72-.34-.71-.69-1.41-1.04-2.1-.34-.68-.69-1.35-1.04-2.01-.38-.72-.77-1.44-1.16-2.14-.11-.2-.22-.4-.34-.6-.25-.46-.52-.92-.78-1.38-.17-.29-.34-.58-.51-.86-.16-.29-.33-.57-.51-.86-.06-.12-.14-.24-.21-.36-.21-.36-.43-.71-.65-1.06-.19-.31-.38-.62-.58-.93-.21-.34-.43-.68-.65-1.01-.22-.34-.43-.68-.66-1.02-.07-.12-.15-.23-.22-.34-.34-.51-.69-1.03-1.04-1.54-.03-.05-.06-.09-.1-.14-.61-.89-1.23-1.77-1.86-2.64-.63-.87-1.27-1.73-1.92-2.58-.52-.68-1.05-1.36-1.59-2.04-.13-.17-.26-.33-.4-.49-.02-.04-.06-.08-.09-.12-.64-.8-1.29-1.58-1.96-2.36-.09-.12-.19-.24-.3-.35-.1-.12-.2-.24-.3-.36-.17-.19-.34-.39-.51-.58-.38-.44-.76-.87-1.15-1.3-.29-.32-.57-.64-.87-.96-.03-.04-.07-.08-.1-.12-.16-.17-.32-.34-.47-.51-1.06-1.14-2.13-2.25-3.23-3.35-.59-.59-1.19-1.18-1.79-1.75-.35-.33-.7-.66-1.05-.99-.12-.12-.24-.23-.36-.34-.49-.46-.98-.91-1.48-1.36-.14-.13-.29-.26-.43-.39-.05-.04-.1-.09-.15-.13-.69-.62-1.39-1.23-2.1-1.83-.14-.12-.27-.23-.41-.35-.27-.23-.55-.46-.82-.69-.14-.12-.28-.23-.42-.34-.48-.41-.97-.8-1.47-1.2-.03-.03-.07-.05-.1-.07-.04-.04-.08-.08-.13-.11-.84-.67-1.69-1.32-2.55-1.97-.54-.41-1.09-.81-1.64-1.21,0,0-.01,0-.01-.01-.57-.41-1.15-.83-1.73-1.23-.31-.23-.63-.45-.95-.66-.39-.28-.78-.54-1.18-.81-.4-.27-.79-.53-1.19-.79-.34-.22-.69-.45-1.03-.67-.32-.21-.65-.42-.98-.62-.23-.14-.45-.28-.68-.42-.26-.16-.52-.32-.78-.48-.22-.14-.43-.27-.65-.4-.04-.03-.09-.05-.13-.07-.26-.16-.51-.32-.78-.47-.4-.24-.81-.47-1.22-.7-.12-.08-.25-.15-.37-.21l-.36-.21c-.24-.14-.49-.28-.74-.41-.06-.03-.11-.07-.17-.1h0c-.24-.14-.48-.27-.72-.4-.54-.3-1.08-.59-1.62-.87-.05-.04-.1-.07-.15-.08h0s-.08-.04-.12-.07c-.32-.17-.64-.34-.96-.5-.26-.14-.52-.27-.79-.4-.18-.09-.36-.18-.54-.27-.53-.27-1.06-.53-1.59-.78-.62-.3-1.24-.59-1.86-.87-.11-.05-.22-.1-.33-.15-.62-.29-1.25-.58-1.89-.85-.08-.04-.17-.07-.25-.1-.45-.2-.91-.4-1.38-.59-.67-.28-1.33-.56-2.01-.82-.2-.08-.4-.16-.61-.25-.43-.17-.86-.33-1.29-.5-.04-.01-.08-.02-.12-.04-.4-.15-.8-.31-1.21-.45-.3-.12-.6-.22-.9-.33-.45-.16-.9-.32-1.36-.48h-.01c-.48-.17-.96-.33-1.44-.49-.1-.03-.2-.07-.3-.1-12.29-4.05-25.42-6.23-39.07-6.23h-50c-13.64,0-26.78,2.19-39.07,6.23-.74.24-1.47.49-2.2.75-.61.21-1.21.42-1.81.65-.45.16-.89.33-1.33.49-.43.17-.86.33-1.29.5-.14.06-.29.11-.43.17-.48.19-.95.38-1.42.58-4.46,1.83-8.79,3.92-12.98,6.25-1.23.68-2.45,1.38-3.65,2.1-.52.31-1.04.62-1.56.95-.51.31-1.02.63-1.52.95-.39.25-.78.51-1.17.76-.4.26-.8.52-1.19.79-4.5,3.02-8.79,6.33-12.85,9.9-.52.45-1.04.91-1.55,1.38-.52.47-1.03.94-1.53,1.42-1.09,1.01-2.16,2.05-3.21,3.11-.83.84-1.65,1.69-2.46,2.56-.62.66-1.24,1.33-1.84,2.01-.39.43-.77.86-1.15,1.3-.38.42-.75.85-1.11,1.29-2.78,3.27-5.39,6.68-7.82,10.23-.39.56-.77,1.12-1.14,1.68-.07.11-.15.23-.22.34-.62.95-1.23,1.9-1.83,2.87-.31.5-.62,1-.92,1.51-.35.57-.68,1.14-1.02,1.72-.26.46-.53.92-.78,1.38-1.17,2.07-2.28,4.19-3.33,6.34-.2.41-.4.82-.59,1.23-1.86,3.91-3.52,7.94-4.97,12.06-.01.03-.02.05-.03.08-.27.76-.53,1.52-.78,2.29-.26.79-.51,1.59-.76,2.39s-.48,1.6-.71,2.41c-.24.8-.46,1.61-.67,2.43-.18.69-.36,1.38-.53,2.07-.63,2.58-1.18,5.19-1.65,7.83-.63,3.55-1.11,7.15-1.43,10.8-.23,2.56-.38,5.15-.45,7.76-.03,1.14-.05,2.29-.05,3.44,0,.33,0,.67.01,1,.02,3.43.19,6.84.49,10.2.2,2.29.46,4.55.79,6.8,1.14,7.93,3.03,15.63,5.59,23,3.26,9.39,7.6,18.27,12.89,26.5.24.37.48.73.73,1.1,4.68,7.14,10.09,13.77,16.11,19.79.29.29.59.59.89.87,6.09,5.97,12.79,11.33,20,15.95,19.47,12.53,42.64,19.79,67.5,19.79h50c.35,0,.69,0,1.04-.01,32.99-.26,62.94-13.31,85.13-34.43.71-.68,1.41-1.37,2.11-2.06.94-.94,1.87-1.89,2.76-2.86.28-.29.54-.57.81-.87h.01c.27-.3.54-.59.81-.89.25-.29.51-.58.77-.87.49-.54.98-1.1,1.45-1.65.52-.6,1.03-1.21,1.54-1.83.42-.5.84-1.02,1.24-1.53.36-.45.72-.9,1.07-1.35.4-.51.8-1.03,1.19-1.55.36-.48.71-.96,1.06-1.44.76-1.03,1.5-2.08,2.23-3.14.39-.57.78-1.15,1.16-1.73.04-.06.08-.12.12-.18.25-.37.49-.74.73-1.11.39-.6.76-1.2,1.13-1.81,4.78-7.71,8.74-15.98,11.76-24.69,2.56-7.37,4.45-15.07,5.59-23,.33-2.25.59-4.51.79-6.8.3-3.36.47-6.77.49-10.2.01-.33.01-.67.01-1,0-1.05-.01-2.09-.04-3.13ZM358.5,159.97v.24s-.01.24-.01.24c-.01,2.8-.15,5.67-.41,8.58-.02.28-.05.56-.08.83-.15,1.66-.35,3.23-.58,4.81v.06c-.95,6.55-2.52,13.04-4.69,19.29-2.51,7.22-5.83,14.19-9.87,20.7l-.05.09-.05.08c-.26.43-.52.86-.8,1.28l-.02.04-.03.04c-4.09,6.36-8.89,12.31-14.25,17.66-19.59,19.55-45.61,30.43-73.28,30.65h-.41s-50.47.01-50.47.01c-24.94,0-48.62-8.67-67.5-24.58-2.06-1.72-4.05-3.54-5.99-5.44l-.17-.16-.18-.17c-.14-.13-.27-.27-.41-.4-5.32-5.33-10.09-11.24-14.15-17.56-4.47-6.96-8.11-14.44-10.82-22.25-2.17-6.24-3.75-12.73-4.69-19.28v-.06c-.24-1.58-.43-3.16-.59-4.84-.03-.28-.05-.56-.08-.84-.25-2.87-.39-5.74-.41-8.54v-.46s-.01-.42-.01-.42c0-.86.02-1.81.05-2.9.05-2.19.18-4.38.38-6.55.02-.24.04-.48.07-.72.25-2.78.63-5.58,1.12-8.32.4-2.22.86-4.43,1.38-6.55.15-.61.31-1.21.47-1.81v-.04s.02-.05.02-.05c.16-.64.31-1.17.45-1.64l.04-.14.04-.15c.18-.64.36-1.27.56-1.9.22-.71.44-1.41.67-2.11v-.03s.03-.04.03-.04c.15-.49.32-.97.49-1.46l.08-.21.13-.39c1.2-3.4,2.59-6.75,4.11-9.96l.05-.09.04-.09c.13-.29.28-.58.41-.86.9-1.83,1.83-3.61,2.77-5.28l.09-.14.08-.15c.09-.18.2-.35.3-.53l.22-.39.12-.21c.21-.35.41-.7.63-1.05l.1-.16.09-.17c.22-.37.45-.74.68-1.11.63-1.01,1.2-1.9,1.74-2.72.28-.43.57-.85.86-1.28l.05-.06.05-.07c2.01-2.94,4.22-5.83,6.55-8.57l.12-.15.12-.14c.15-.19.31-.37.46-.54l.16-.17.15-.18c.27-.31.55-.62.83-.93l.09-.1.09-.11c.37-.42.81-.9,1.42-1.54l.03-.04.03-.03c.63-.67,1.3-1.37,2.03-2.11.89-.9,1.76-1.74,2.6-2.52l.13-.12.12-.12c.36-.34.72-.68,1.09-1.01l.08-.07.07-.06c.35-.33.72-.65,1.08-.96l.06-.06.06-.05c3.42-3,7.05-5.8,10.79-8.31l.12-.08.12-.09c.21-.14.43-.28.65-.43.23-.14.46-.29.68-.44l.42-.27c.37-.24.75-.48,1.13-.71l.17-.1.16-.1c.36-.23.72-.44,1.08-.66h.03s.02-.03.02-.03c3.87-2.32,7.91-4.39,12.02-6.18.64-.28,1.28-.56,1.92-.82l.12-.05.11-.05c.32-.13.63-.26.95-.38l.11-.04c.12-.05.25-.1.38-.15l.39-.16c.19-.07.39-.14.58-.22.15-.05.3-.11.45-.17.16-.06.32-.12.48-.17l.23-.09.23-.08c.39-.15.77-.28,1.16-.42l.1-.03.1-.04c.55-.19,1.1-.38,1.66-.56l.04-.02h.04c10.56-3.48,21.6-5.24,32.82-5.24h50c11.33,0,22.46,1.79,33.07,5.31.35.12.71.24,1.06.36l1.99.7c.33.13.67.26,1.03.39l.04.02h.03c1.1.43,2.23.87,3.34,1.34l.17.07.16.07c.29.12.6.25.94.4l.05.02.09.04.13.06c.5.21,1.08.48,1.63.73l.1.05.11.05c.46.21.92.42,1.38.64l.09.05.09.04c.35.16.7.34,1.05.51l.14.08.15.07c.28.14.57.28.85.43l.11.06.11.05c1.21.61,2.41,1.26,3.58,1.93l.09.06.09.05c.52.29,1.02.57,1.52.87l.09.05.08.05c.23.13.44.26.66.39l.06.03.05.04c.48.28,1.05.64,1.67,1.03,1.99,1.25,3.98,2.59,5.93,4.02.44.32.88.63,1.34.99.66.49,1.42,1.07,2.14,1.65l.23.18.06.04s.04.03.06.05c.47.37.93.75,1.39,1.14l.04.03.04.03c.34.29.68.57,1.02.86l.07.07c.56.47,1.11.95,1.65,1.43l.41.37.03.02c.44.4.88.8,1.31,1.21l.08.07.08.07c.37.35.73.69,1.09,1.04l.03.02.03.03c.47.45.95.92,1.42,1.39.93.93,1.82,1.86,2.73,2.83.81.87,1.66,1.83,2.59,2.9.85.99,1.51,1.79,2.08,2.5l.19.24.1.11.07.09.15.19c1.56,1.95,3.1,4.03,4.57,6.19l.03.03.02.04c.68.99,1.37,2.04,2.1,3.2l.03.04.03.05c.35.55.66,1.05.93,1.5l.07.13.08.12c.58.94,1.18,1.98,1.83,3.17l.04.06.03.07c.32.57.64,1.15.96,1.77.28.52.56,1.05.82,1.59l.03.05.03.05c.28.55.56,1.12.83,1.69.28.57.55,1.14.81,1.71l.03.07.04.08c.32.69.64,1.43.99,2.23l.14.33c.12.27.24.55.35.83l.06.13.05.13c.19.46.38.91.56,1.37l.26.66.27.72c.16.41.32.83.47,1.26l.03.08.03.08c1.07,2.93,2.01,5.89,2.77,8.8l.03.09.02.09c.18.67.35,1.34.52,2.01.35,1.48.67,2.91.93,4.22.11.56.22,1.13.33,1.69v.08s.03.08.03.08l.04.24.05.24c.47,2.7.85,5.44,1.1,8.19.03.27.06.55.08.82.21,2.31.34,4.57.39,6.72v.14c.02.75.03,1.56.03,2.55v.4Z"/>
  <path class="cls-4" d="M358.5,159.57v.64s-.01.24-.01.24c-.01,2.8-.15,5.67-.41,8.58-.02.28-.05.56-.08.83-.15,1.66-.35,3.23-.58,4.81v.06c-.95,6.55-2.52,13.04-4.69,19.29-2.51,7.22-5.83,14.19-9.87,20.7l-.05.09-.05.08c-.26.43-.52.86-.8,1.28l-.02.04-.03.04c-4.09,6.36-8.89,12.31-14.25,17.66-19.59,19.55-45.61,30.43-73.28,30.65h-.41s-50.47.01-50.47.01c-24.94,0-48.62-8.67-67.5-24.58-2.06-1.72-4.05-3.54-5.99-5.44l-.17-.16-.18-.17c-.14-.13-.27-.27-.41-.4-5.32-5.33-10.09-11.24-14.15-17.56-4.47-6.96-8.11-14.44-10.82-22.25-2.17-6.24-3.75-12.73-4.69-19.28v-.06c-.24-1.58-.43-3.16-.59-4.84-.03-.28-.05-.56-.08-.84-.25-2.87-.39-5.74-.41-8.54v-.46s-.01-.42-.01-.42c0-.86.02-1.81.05-2.9.05-2.19.18-4.38.38-6.55.02-.24.04-.48.07-.72.25-2.78.63-5.58,1.12-8.32.4-2.22.86-4.43,1.38-6.55.15-.61.31-1.21.47-1.81v-.04s.02-.05.02-.05c.16-.64.31-1.17.45-1.64l.04-.14.04-.15c.18-.64.36-1.27.56-1.9.22-.71.44-1.41.67-2.11v-.03s.03-.04.03-.04c.15-.49.32-.97.49-1.46l.08-.21.13-.39c1.2-3.4,2.59-6.75,4.11-9.96l.05-.09.04-.09c.13-.29.28-.58.41-.86.9-1.83,1.83-3.61,2.77-5.28l.09-.14.08-.15c.09-.18.2-.35.3-.53l.22-.39.12-.21c.21-.35.41-.7.63-1.05l.1-.16.09-.17c.22-.37.45-.74.68-1.11.63-1.01,1.2-1.9,1.74-2.72.28-.43.57-.85.86-1.28l.05-.06.05-.07c2.01-2.94,4.22-5.83,6.55-8.57l.12-.15.12-.14c.15-.19.31-.37.46-.54l.16-.17.15-.18c.27-.31.55-.62.83-.93l.09-.1.09-.11c.37-.42.81-.9,1.42-1.54l.03-.04.03-.03c.63-.67,1.3-1.37,2.03-2.11.89-.9,1.76-1.74,2.6-2.52l.13-.12.12-.12c.36-.34.72-.68,1.09-1.01l.08-.07.07-.06c.35-.33.72-.65,1.08-.96l.06-.06.06-.05c3.42-3,7.05-5.8,10.79-8.31l.12-.08.12-.09c.21-.14.43-.28.65-.43.23-.14.46-.29.68-.44l.42-.27c.37-.24.75-.48,1.13-.71l.17-.1.16-.1c.36-.23.72-.44,1.08-.66h.03s.02-.03.02-.03c3.87-2.32,7.91-4.39,12.02-6.18.64-.28,1.28-.56,1.92-.82l.12-.05.11-.05c.32-.13.63-.26.95-.38l.11-.04c.12-.05.25-.1.38-.15l.39-.16c.19-.07.39-.14.58-.22.15-.05.3-.11.45-.17.16-.06.32-.12.48-.17l.23-.09.23-.08c.39-.15.77-.28,1.16-.42l.1-.03.1-.04c.55-.19,1.1-.38,1.66-.56l.04-.02h.04c10.56-3.48,21.6-5.24,32.82-5.24h50c11.33,0,22.46,1.79,33.07,5.31.35.12.71.24,1.06.36l1.99.7c.33.13.67.26,1.03.39l.04.02h.03c1.1.43,2.23.87,3.34,1.34l.17.07.16.07c.29.12.6.25.94.4l.05.02.09.04.13.06c.5.21,1.08.48,1.63.73l.1.05.11.05c.46.21.92.42,1.38.64l.09.05.09.04c.35.16.7.34,1.05.51l.14.08.15.07c.28.14.57.28.85.43l.11.06.11.05c1.21.61,2.41,1.26,3.58,1.93l.09.06.09.05c.52.29,1.02.57,1.52.87l.09.05.08.05c.23.13.44.26.66.39l.06.03.05.04c.48.28,1.05.64,1.67,1.03,1.99,1.25,3.98,2.59,5.93,4.02.44.32.88.63,1.34.99.66.49,1.42,1.07,2.14,1.65l.23.18.06.04s.04.03.06.05c.47.37.93.75,1.39,1.14l.04.03.04.03c.34.29.68.57,1.02.86l.07.07c.56.47,1.11.95,1.65,1.43l.41.37.03.02c.44.4.88.8,1.31,1.21l.08.07.08.07c.37.35.73.69,1.09,1.04l.03.02.03.03c.47.45.95.92,1.42,1.39.93.93,1.82,1.86,2.73,2.83.81.87,1.66,1.83,2.59,2.9.85.99,1.51,1.79,2.08,2.5l.19.24.1.11.07.09.15.19c1.56,1.95,3.1,4.03,4.57,6.19l.03.03.02.04c.68.99,1.37,2.04,2.1,3.2l.03.04.03.05c.35.55.66,1.05.93,1.5l.07.13.08.12c.58.94,1.18,1.98,1.83,3.17l.04.06.03.07c.32.57.64,1.15.96,1.77.28.52.56,1.05.82,1.59l.03.05.03.05c.28.55.56,1.12.83,1.69.28.57.55,1.14.81,1.71l.03.07.04.08c.32.69.64,1.43.99,2.23l.14.33c.12.27.24.55.35.83l.06.13.05.13c.19.46.38.91.56,1.37l.26.66.27.72c.16.41.32.83.47,1.26l.03.08.03.08c1.07,2.93,2.01,5.89,2.77,8.8l.03.09.02.09c.18.67.35,1.34.52,2.01.35,1.48.67,2.91.93,4.22.11.56.22,1.13.33,1.69v.08s.03.08.03.08l.04.24.05.24c.47,2.7.85,5.44,1.1,8.19.03.27.06.55.08.82.21,2.31.34,4.57.39,6.72v.14c.02.75.03,1.56.03,2.55Z"/>
  <path class="cls-1" d="M142.97,50.19c-1.23.68-2.45,1.38-3.65,2.1-.52.31-1.04.62-1.56.95-.51.31-1.02.63-1.52.95-.39.25-.78.51-1.17.76-.4.26-.8.52-1.19.79-4.5,3.02-8.79,6.33-12.85,9.9-.52.45-1.04.91-1.55,1.38-.52.47-1.03.94-1.53,1.42-1.09,1.01-2.16,2.05-3.21,3.11-.83.84-1.65,1.69-2.46,2.56-.62.66-1.24,1.33-1.84,2.01-.39.43-.77.86-1.15,1.3-.38.42-.75.85-1.11,1.29-2.78,3.27-5.39,6.68-7.82,10.23-.39.56-.77,1.12-1.14,1.68-.07.11-.15.23-.22.34V20.24s0-.01.01-.01c.1-.15.29-.23.55-.23.19,0,.34.05.46.11l.63.44,24.38,17.08,17.94,12.56Z"/>
  <path class="cls-1" d="M358,20.24v70.72c-.07-.12-.15-.23-.22-.34-.34-.51-.69-1.03-1.04-1.54-.03-.05-.06-.09-.1-.14-.61-.89-1.23-1.77-1.86-2.64-.63-.87-1.27-1.73-1.92-2.58-.52-.68-1.05-1.36-1.59-2.04-.13-.17-.26-.33-.4-.49-.02-.04-.06-.08-.09-.12-.64-.8-1.29-1.58-1.96-2.36-.09-.12-.19-.24-.3-.35-.1-.12-.2-.24-.3-.36-.17-.19-.34-.39-.51-.58-.38-.44-.76-.87-1.15-1.3-.29-.32-.57-.64-.87-.96-.03-.04-.07-.08-.1-.12-.16-.17-.32-.34-.47-.51-1.06-1.14-2.13-2.25-3.23-3.35-.59-.59-1.19-1.18-1.79-1.75-.35-.33-.7-.66-1.05-.99-.12-.12-.24-.23-.36-.34-.49-.46-.98-.91-1.48-1.36-.14-.13-.29-.26-.43-.39-.05-.04-.1-.09-.15-.13-.69-.62-1.39-1.23-2.1-1.83-.14-.12-.27-.23-.41-.35-.27-.23-.55-.46-.82-.69-.14-.12-.28-.23-.42-.34-.48-.41-.97-.8-1.47-1.2-.03-.03-.07-.05-.1-.07-.04-.04-.08-.08-.13-.11-.84-.67-1.69-1.32-2.55-1.97-.54-.41-1.09-.81-1.64-1.21,0,0-.01,0-.01-.01-.57-.41-1.15-.83-1.73-1.23-.31-.23-.63-.45-.95-.66-.39-.28-.78-.54-1.18-.81-.4-.27-.79-.53-1.19-.79-.34-.22-.69-.45-1.03-.67-.32-.21-.65-.42-.98-.62-.23-.14-.45-.28-.68-.42-.26-.16-.52-.32-.78-.48-.22-.14-.43-.27-.65-.4-.04-.03-.09-.05-.13-.07-.26-.16-.51-.32-.78-.47-.4-.24-.81-.47-1.22-.7-.12-.08-.25-.15-.37-.21l-.36-.21c-.24-.14-.49-.28-.74-.41-.06-.03-.11-.07-.17-.1l17.94-12.56,21.34-14.95,3.02-2.12.65-.45c.12-.06.27-.11.46-.11.26,0,.44.08.54.22t.01.02Z"/>
  <path class="cls-6" d="M480.49,338.28c-7.68-7.03-16.38-13.05-25.86-17.81-6.67-3.36-13.73-6.1-21.1-8.14-.87-.24-1.74-.47-2.62-.69-6.66-1.68-13.56-2.79-20.65-3.28-2.73-.19-5.48-.29-8.26-.29-39.58,0-74.45,19.46-94.89,49.02-6.89,9.96-12.15,21.08-15.38,32.98-1.75,6.46-2.92,13.14-3.43,20-.2,2.64-.3,5.31-.3,8v23c0,5.91-1.56,11.46-4.29,16.26-5.67,9.99-16.42,16.74-28.71,16.74s-23.04-6.75-28.71-16.74c-2.73-4.8-4.29-10.35-4.29-16.26v-21c0-5.52-4.48-10-10-10-2.76,0-5.26,1.12-7.07,2.93s-2.93,4.31-2.93,7.07v21c0,5.91-1.56,11.46-4.29,16.26-5.67,9.99-16.42,16.74-28.71,16.74s-23.04-6.75-28.71-16.74c-2.73-4.8-4.29-10.35-4.29-16.26v-176.29c19.47,12.53,42.64,19.79,67.5,19.79h50c.35,0,.69,0,1.04-.01,24.49-.19,47.31-7.44,66.52-19.81,6.67-4.28,12.9-9.18,18.61-14.62.71-.68,1.41-1.37,2.11-2.06.94-.94,1.87-1.89,2.76-2.86,13.13-1.38,24.1-.71,31.87.24,17.03,1.36,33.6,6.51,48.37,15.02.75.43,1.5.87,2.25,1.32.8.47,1.59.97,2.38,1.47.03.02.07.05.11.07.68.44,1.36.89,2.04,1.34,7.46,5.02,14.34,10.89,20.43,17.47.49.5.94,1,1.4,1.51.17.19.54.61,1.07,1.22.31.35.6.7.9,1.06.17.18.33.37.48.55.92,1.08,1.81,2.18,2.68,3.3.44.56.87,1.12,1.29,1.69.39.52.78,1.04,1.16,1.57.06.09.13.17.18.26.34.46.67.92.99,1.38.09.13.18.26.27.39.37.53.73,1.07,1.08,1.6.17.25.34.51.49.76.23.33.45.67.67,1.02.04.05.07.11.11.16.26.4.52.81.77,1.22.04.06.07.12.11.18.32.51.64,1.03.96,1.56.45.76.9,1.52,1.33,2.28.29.5.57,1.01.85,1.52-.01-.01-.02-.01-.03-.02,6.12,11.29,9.67,22.95,11.74,32.93Z"/>
  <path class="cls-3" d="M308,410.07v31c0,14.63-5.93,27.89-15.52,37.48-1.41,1.41-2.91,2.75-4.48,4-8.63,6.87-19.46,11.11-31.25,11.49-.58.02-1.17.03-1.75.03-.55,0-1.11-.01-1.66-.03-17.02-.52-32.02-9.07-41.34-21.99-1.66,2.31-3.51,4.49-5.52,6.5-9.23,9.23-21.86,15.07-35.84,15.49-.55.02-1.09.03-1.64.03-.58,0-1.17-.01-1.75-.03-11.79-.38-22.62-4.62-31.25-11.49-12.19-9.72-20-24.69-20-41.48v-31h20v31c0,5.91,1.56,11.46,4.29,16.26,5.67,9.99,16.42,16.74,28.71,16.74s23.04-6.75,28.71-16.74c2.73-4.8,4.29-10.35,4.29-16.26v-21c0-2.76,1.12-5.26,2.93-7.07s4.31-2.93,7.07-2.93c5.52,0,10,4.48,10,10v21c0,5.91,1.56,11.46,4.29,16.26,5.67,9.99,16.42,16.74,28.71,16.74s23.04-6.75,28.71-16.74c2.73-4.8,4.29-10.35,4.29-16.26v-23c0-2.69.1-5.36.3-8h19.7Z"/>
  <path class="cls-3" d="M442.54,137.57h-65.97c.63,3.55,1.11,7.15,1.43,10.8.24,2.67.4,5.36.46,8.07.03,1.04.04,2.08.04,3.13,0,.33,0,.67-.01,1h64.05c6.33,0,11.46-5.13,11.46-11.46v-.08c0-6.33-5.13-11.46-11.46-11.46Z"/>
  <path class="cls-3" d="M79,137.57H11.46c-6.33,0-11.46,5.13-11.46,11.46v.08c0,6.33,5.13,11.46,11.46,11.46h67.05c-.01-.33-.01-.67-.01-1,0-1.15.02-2.3.05-3.44.07-2.61.22-5.2.45-7.76.32-3.65.8-7.25,1.43-10.8h-1.43Z"/>
  <path class="cls-3" d="M443.54,177.57h-66.33c-1.14,7.93-3.03,15.63-5.59,23h71.92c6.33,0,11.46-5.13,11.46-11.46v-.08c0-6.33-5.13-11.46-11.46-11.46Z"/>
  <path class="cls-3" d="M79.79,177.57H12.46c-6.33,0-11.46,5.13-11.46,11.46v.08c0,6.33,5.13,11.46,11.46,11.46h72.92c-2.56-7.37-4.45-15.07-5.59-23Z"/>
  <path class="cls-3" d="M670,505.54c0,3.18-1.29,6.05-3.37,8.13-2.08,2.08-4.95,3.37-8.13,3.37H51.5c-6.35,0-11.5-5.15-11.5-11.5,0-3.18,1.29-6.05,3.37-8.13,2.08-2.08,4.95-3.37,8.13-3.37h607c6.35,0,11.5,5.15,11.5,11.5Z"/>
  <path class="cls-3" d="M163.51,106.44c-19.3,0-35,15.7-35,35s15.7,35,35,35,35-15.7,35-35-15.7-35-35-35ZM163.51,156.44c-8.27,0-15-6.73-15-15s6.73-15,15-15,15,6.73,15,15-6.73,15-15,15Z"/>
  <circle class="cls-7" cx="163.51" cy="141.44" r="15"/>
  <path class="cls-3" d="M293.49,106.44c-19.3,0-35,15.7-35,35s15.7,35,35,35,35-15.7,35-35-15.7-35-35-35ZM293.49,156.44c-8.27,0-15-6.73-15-15s6.73-15,15-15,15,6.73,15,15-6.73,15-15,15Z"/>
  <circle class="cls-7" cx="293.49" cy="141.44" r="15"/>
  <rect class="cls-3" x="203.5" y="166.44" width="50" height="20" rx="10" ry="10"/>
  <path class="cls-3" d="M297.04,202.57c-4.47,0-8.31,2.99-9.61,7.26-3.12,10.25-12.66,17.74-23.92,17.74s-20.8-7.49-23.92-17.74c-1.3-4.27-5.15-7.26-9.61-7.26h-2.92c-4.47,0-8.31,2.99-9.61,7.26-3.12,10.25-12.66,17.74-23.92,17.74s-20.8-7.49-23.92-17.74c-1.3-4.27-5.15-7.26-9.61-7.26h0c-6.74,0-11.5,6.52-9.55,12.97,5.57,18.53,22.76,32.03,43.1,32.03,14.15,0,26.76-6.52,35-16.73,8.24,10.21,20.86,16.73,35,16.73,20.35,0,37.54-13.5,43.1-32.03,1.94-6.46-2.81-12.97-9.56-12.97h0Z"/>
  <path class="cls-4" d="M210.02,284.57c-2.47,38.64-31.54,69.13-67.05,69.13-2.35,0-4.68-.13-6.97-.39v-88.53c19.47,12.53,42.64,19.79,67.5,19.79h6.52Z"/>
  <path class="cls-2" d="M451.99,282.14c-15.69,12.33-35.48,19.68-56.97,19.68-30.26,0-57.13-14.57-73.96-37.07,6.67-4.28,12.9-9.18,18.61-14.62.71-.68,1.41-1.37,2.11-2.06.94-.94,1.87-1.89,2.76-2.86,13.13-1.38,24.1-.71,31.87.24,17.03,1.36,33.6,6.51,48.37,15.02.75.43,1.5.87,2.25,1.32.8.47,1.59.97,2.38,1.47.03.02.07.05.11.07.68.44,1.36.89,2.04,1.34,7.46,5.02,14.34,10.89,20.43,17.47Z"/>
  <circle class="cls-1" cx="266.72" cy="329.45" r="19.11"/>
  <circle class="cls-5" cx="195.49" cy="375.37" r="26.81"/>
  <path class="cls-2" d="M614,182.57v42.5h-47v-41.79c0-6.06,2.56-11.9,6.57-16.34,4.02-4.43,9.49-7.44,15.32-7.82.53-.03,1.07-.05,1.6-.05h.17c.28,0,.59.01.91.03.07,0,.13,0,.19.01.31.01.63.03.97.07.05,0,.1.01.16.01.3.03.61.07.94.12.07.01.15.02.22.03.26.04.53.09.8.14.14.02.28.05.41.08.21.04.43.09.65.14.21.05.42.1.62.16.17.04.33.08.5.13.31.09.62.19.92.29.09.03.18.06.27.09.59.2,1.17.43,1.73.68.1.05.2.09.3.14.2.09.4.18.6.28.09.04.17.08.26.13.22.11.45.23.67.35.07.04.13.08.2.11.25.15.51.29.76.45.07.04.14.09.21.13.26.16.52.33.77.5.1.07.21.15.31.22.23.16.45.32.67.49.14.1.27.21.4.32.21.16.41.32.61.49.14.13.29.25.43.37.25.23.5.47.75.71.07.07.14.13.22.2,2.6,2.61,4.51,5.72,5.66,9.11.8,2.39,1.23,4.92,1.23,7.52Z"/>
  <rect class="cls-1" x="567" y="225.07" width="47" height="70.86"/>
  <path class="cls-4" d="M567,295.93v63.14c0,6.73-.77,13.24-2.2,19.38-1.07,4.6-2.52,9.01-4.29,13.15-3.35,7.81-7.88,14.7-13.31,20.28-.01,0-.02.01-.02.02-.41.41-.82.81-1.23,1.21-.31.3-.62.59-.94.88-.17.16-.33.31-.5.47v53.06c.85-.28,1.72-.58,2.59-.89,2.66-.93,5.28-1.97,7.84-3.09,7.6-3.27,19.1-9.18,30.39-20.12.2-.19.41-.38.61-.57,12.01-11.64,20.62-25.87,24.89-41.16.2-.72.38-1.44.56-2.16.43-1.67.79-3.35,1.11-5.05.99-5.22,1.5-10.54,1.5-15.91v-82.64h-47Z"/>
  <path class="cls-6" d="M544.51,414.46v53.06c-3.87,1.27-7.56,2.23-11.23,3-.31.07-.62.13-.93.2-1.01.2-2.02.39-3.04.57-.46.08-.92.17-1.38.24-4.39.74-8.85,1.31-13.64,1.91-5.34.67-9.85,1.02-14.49,1.17,7.62-12.23,12.84-26.01,15.03-40.74.29-1.91.52-3.84.7-5.78,6.32-1.1,13.43-3.19,20.44-7.36,3.23-1.92,6.06-4.06,8.53-6.26h.01Z"/>
</svg>